<?xml version="1.0" encoding="UTF-8"?>
<svg id="Layer_1" xmlns="http://www.w3.org/2000/svg" xmlns:xlink="http://www.w3.org/1999/xlink" version="1.1" viewBox="0 0 232.19 189.69">
  <!-- Generator: Adobe Illustrator 30.4.0, SVG Export Plug-In . SVG Version: 2.1.4 Build 226)  -->
  <defs>
    <style>
      .st0 {
        fill: url(#linear-gradient2);
      }

      .st1 {
        fill: url(#linear-gradient1);
      }

      .st2 {
        fill: url(#linear-gradient3);
      }

      .st3 {
        fill: url(#linear-gradient);
      }

      .st4 {
        fill: #fff;
      }
    </style>
    <linearGradient id="linear-gradient" x1="61.24" y1="126.44" x2="170.96" y2="126.44" gradientTransform="translate(0 189.89) scale(1 -1)" gradientUnits="userSpaceOnUse">
      <stop offset="0" stop-color="#4061ad"/>
      <stop offset=".12" stop-color="#505ca9"/>
      <stop offset=".26" stop-color="#5c59a7"/>
      <stop offset=".4" stop-color="#6059a7"/>
      <stop offset=".67" stop-color="#4788c7"/>
      <stop offset="1" stop-color="#2fbebe"/>
    </linearGradient>
    <linearGradient id="linear-gradient1" x1="151.64" y1="55.1" x2="215.53" y2="55.1" gradientTransform="translate(0 189.89) scale(1 -1)" gradientUnits="userSpaceOnUse">
      <stop offset="0" stop-color="#4061ad"/>
      <stop offset=".12" stop-color="#505ca9"/>
      <stop offset=".26" stop-color="#5c59a7"/>
      <stop offset=".4" stop-color="#6059a7"/>
      <stop offset=".67" stop-color="#4788c7"/>
      <stop offset="1" stop-color="#2fbebe"/>
    </linearGradient>
    <linearGradient id="linear-gradient2" x1="-149.27" y1="22.39" x2="36.86" y2="22.39" gradientTransform="translate(4.28 140.78) rotate(89.82) scale(1 -1)" gradientUnits="userSpaceOnUse">
      <stop offset="0" stop-color="#4061ad"/>
      <stop offset=".12" stop-color="#505ca9"/>
      <stop offset=".26" stop-color="#5c59a7"/>
      <stop offset=".4" stop-color="#6059a7"/>
      <stop offset=".67" stop-color="#4788c7"/>
      <stop offset="1" stop-color="#2fbebe"/>
    </linearGradient>
    <linearGradient id="linear-gradient3" x1="195.35" y1="22.4" x2="388.89" y2="22.4" gradientTransform="translate(0 189.89) scale(1 -1)" gradientUnits="userSpaceOnUse">
      <stop offset="0" stop-color="#4061ad"/>
      <stop offset=".12" stop-color="#505ca9"/>
      <stop offset=".26" stop-color="#5c59a7"/>
      <stop offset=".4" stop-color="#6059a7"/>
      <stop offset=".67" stop-color="#4788c7"/>
      <stop offset="1" stop-color="#2fbebe"/>
    </linearGradient>
  </defs>
  <path class="st3" d="M141.97,68.97c-1.49.13-2.54-.2-3.8-.66l-9.67,11-6.27,7.04c.89,2.05,1.25,4.43,0,6.6-.96,1.68-2.65,3.28-4.9,3.62-2.71.4-5.15-.7-6.67-2.54-1.85-2.25-1.73-5.14-.65-7.63l-7.84-8.84-8.1-9.27c-1.32.54-2.44.74-3.8.73l-11.02,26.94c2.8,3,2.33,7.32-.7,9.93-1.98,1.71-4.65,2.13-7.19,1.09-2.22-.91-3.95-3.01-4.28-5.62s.94-4.69,2.84-6.37l-3.84-16.28c-3.03-.54-4.94-2.87-4.84-5.68s2.26-5.23,5.38-5.43l10.93-35.81c-2.24-1.96-3.23-4.61-2.39-7.46.71-2.4,2.86-4.47,5.64-4.88,2.57-.38,5.12.61,6.61,2.48,1.66,2.1,2.06,4.74.96,7.25l2.83,2.33,21.93,19.02c1.94-1.24,4.11-1.13,6.06-.08l24.61-21.36c-1.73-3.86.47-8.27,4.43-9.45s8.37,1.39,9.03,5.73c.37,2.41-.63,4.7-2.54,6.35l2.03,7.06,8.83,28.78c3.07.19,5.15,2.48,5.36,5.24.23,2.93-1.8,5.34-4.78,5.9l-3.92,16.23c2.1,1.47,3.07,3.66,2.88,6.16-.28,3.68-3.41,6.41-6.93,6.39s-6.71-2.65-7.06-6.38c-.19-2,.56-3.74,1.84-5.17l-6.03-14.63-4.97-12.35v.02ZM135.61,65.93c-1.55-2.39-1.59-5.09-.23-7.46,1.06-1.85,3.23-3.2,5.76-3.45l5.39-22.23c.09-.37-.12-.63-.35-.74-.31-.15-.49.08-.74.3l-6.79,5.83-17.27,14.98c1.05,2.63.19,5.27-1.86,6.77-2.17,1.58-4.93,1.46-7.01-.18s-2.63-4.21-1.64-6.6l-24.47-21.14c-.18-.15-.78.27-.84.48l5.45,22.59c2.66.08,4.79,1.6,5.92,3.64,1.29,2.31,1.08,4.87-.33,7.22l6.03,6.81,9.97,11.15c2.27-1.35,4.77-1.42,7.07-.04l15.95-17.93h0ZM83.89,62.94c-.4-3.29,1.2-5.81,3.73-7.19l-5.42-22.34c-.52-.12-.95-.15-1.45-.06l-3.55,11.85-7.09,23.12c-.1.32.81.98,1.12.87,0,0,12.66-6.25,12.66-6.25ZM161.13,69.24c.36-.23,1.01-.55,1.01-.9l-9.15-29.69-1.62-5.27c-.25-.26-1.14-.2-1.36.09l-2.29,9.64-3.16,12.7c2.68,1.34,4.14,4.14,3.74,7.2l12.83,6.23h0ZM76.26,93.94l10.72-26-1.75-1.74-12.81,6.16c.39,2.54-.74,4.58-2.88,5.76l3.83,15.57c1.02,0,1.89-.06,2.9.24h-.01ZM158.97,93.7l3.63-15.56c-2.12-1.18-3.27-3.3-2.88-5.81l-12.65-6.08-1.85,1.75,10.75,25.95c1.04-.24,1.93-.28,3-.25Z"/>
  <g>
    <path class="st4" d="M43.86,149.08l-.06-23.33-10.86,16.05c-.27.4-1.25.35-1.5,0l-10.97-16.08-.05,23.36-3.75.04v-29.18h4.37l11.15,16.7,11.05-16.71,4.39.04.06,29.14-3.84-.02h.01Z"/>
    <path class="st4" d="M60.39,145.49c3.6,1.88,7.93,1.15,10.74-1.79.9.56,1.67,1.21,2.48,2.06-4.25,4.89-12.75,5.19-17.31.94-4.91-4.59-4.31-14.21,2.09-17.67,3.42-1.85,7.55-1.93,11.06-.3,4.12,1.91,5.82,6.7,5.32,11.13l-9.29.02-8.75.05c.28,2.44,1.46,4.43,3.65,5.57h0ZM71.31,136.99c-.22-3.85-3.18-6.1-6.73-6.23-3.9-.15-7.34,2.3-7.79,6.26l14.53-.02h0Z"/>
    <path class="st4" d="M118.47,149.12l-.06-12.53c0-1.57-.59-3.19-1.79-4.17-2.65-2.16-6.45-2.01-9,.26-1.29,1.15-2.05,2.82-2.05,4.59l-.04,11.85h-3.65v-29.24l3.63-.05.07,11.58c3.04-4.4,9.59-4.99,13.54-1.71,1.93,1.6,2.93,4.13,2.95,6.65l.08,12.73-3.67.04h0Z"/>
    <polygon class="st4" points="147.04 128.14 137.92 148.97 133.83 158.17 129.89 158.13 134.07 148.87 125.3 128.1 129.28 128.05 136.06 144.84 143.12 128.11 147.04 128.14"/>
    <path class="st4" d="M96.38,145.5c-1.96,5.45-13.64,5.55-18.03.39l2.21-2.46c2.16,2.18,4.83,3.25,7.85,3.08,1.41-.08,2.87-.2,3.93-1.17.72-.66,1.06-1.65.9-2.64-.13-.79-.87-1.78-1.86-1.98l-4.58-.92c-1.82-.37-3.68-.64-5.25-1.61-1.8-1.11-2.54-3.03-2.31-5.1.2-1.83,1.35-3.44,3.18-4.35,4.03-2.03,10.5-1.47,13.77,1.76l-2.25,2.26-1.57-1.07c-4.36-2.07-10.14-.9-9.58,2.37.18,1.08,1.03,1.87,2.2,2.09l6.53,1.23c1.77.33,3.43,1.11,4.48,2.64s1.07,3.58.39,5.49h-.01Z"/>
    <path class="st1" d="M175.38,120.1l-.03,29.01-3.22-.06-17.22-23.79-.07,23.81h-3.18l-.02-28.98,3.42-.05,4.17,5.95,12.86,17.66.08-23.56h3.21ZM183.54,139.67l15.23-.04c.56,0,1.04.18,1.54-.09.49-5.62-1.93-10.64-7.51-11.65-3.37-.61-6.86.12-9.39,2.5-3.69,3.47-4.11,10.54-1.21,14.97,2.01,3.07,5.45,4.27,9.01,4.18,3.25-.09,6.26-1.17,8.33-3.85l-2.08-1.87c-1.7,2.13-4.16,3.01-7.05,2.91-4.07-.15-6.89-3.14-6.87-7.06h0ZM183.55,137.13c.09-3.94,3.07-6.64,6.98-6.64s6.86,2.57,6.81,6.71l-13.79-.07ZM211.04,146.28c-.87-.35-1.39-1.32-1.39-2.29l-.06-13.21,5.55-.05c.14-.9.11-1.78.03-2.58l-5.59-.02.02-5.79-3.07-.02v5.8l-3.67.07.05,2.57,3.58-.04.13,13.8c.02,2.31,1.72,4.16,3.84,4.64,1.75.4,3.46.22,5.07-.43l-.35-2.69c-1.2.57-2.73.77-4.13.22v.02Z"/>
  </g>
  <g>
    <path class="st4" d="M42.06,168.44c.02.26.08.48.17.66s.22.33.36.44c.15.11.32.2.52.25.19.05.4.08.62.08.26,0,.48-.03.67-.1.19-.06.34-.15.46-.26s.21-.24.26-.38c.06-.15.09-.3.09-.46,0-.23-.05-.41-.15-.55-.1-.14-.24-.26-.4-.34-.16-.09-.35-.16-.57-.22-.21-.05-.43-.11-.66-.16-.22-.05-.44-.11-.66-.18-.21-.07-.4-.16-.57-.28s-.3-.27-.4-.46c-.1-.19-.15-.42-.15-.71,0-.2.04-.39.13-.58s.21-.36.37-.5c.16-.15.37-.26.62-.35.25-.09.54-.13.86-.13s.62.05.86.14c.25.09.45.22.61.38s.28.34.37.56c.08.21.12.44.12.67h-.53c0-.22-.04-.41-.12-.58-.08-.16-.19-.29-.32-.4-.14-.1-.29-.18-.46-.23s-.35-.07-.54-.07c-.28,0-.52.04-.71.12s-.34.18-.46.3c-.11.12-.19.26-.24.41s-.05.3-.02.45c.03.19.11.34.23.45s.26.21.44.28c.17.07.36.13.57.18.21.05.42.1.64.15.22.05.43.11.63.18.2.07.38.17.54.28s.28.27.38.46c.09.19.14.42.14.7,0,.54-.19.96-.56,1.26s-.9.45-1.57.45c-.3,0-.58-.04-.84-.12s-.48-.2-.67-.36-.34-.36-.44-.59c-.11-.24-.16-.51-.16-.83h.54Z"/>
    <path class="st4" d="M47.7,167.27c0-.43.06-.83.17-1.2.12-.37.29-.7.51-.98.23-.28.51-.5.84-.66s.72-.24,1.16-.24.85.08,1.2.24.63.38.86.66.4.61.52.98c.12.38.17.78.17,1.2s-.06.82-.17,1.19-.29.69-.51.97c-.23.28-.51.5-.85.66s-.74.24-1.18.24-.84-.08-1.18-.24-.62-.38-.85-.66-.4-.6-.51-.97-.17-.77-.17-1.19h-.01ZM50.43,169.87c.38,0,.7-.07.98-.21.27-.14.5-.33.67-.57.18-.24.31-.51.39-.83s.13-.64.13-.98c0-.41-.05-.77-.15-1.09-.1-.32-.25-.6-.43-.82-.19-.23-.42-.4-.69-.52-.27-.12-.57-.18-.91-.18-.37,0-.7.07-.97.22s-.5.34-.67.58-.31.52-.39.83-.13.64-.13.98.04.68.13.99c.08.31.21.59.39.83s.4.43.67.57c.27.14.6.21.99.21h0Z"/>
    <path class="st4" d="M59.52,166.04c-.11-.5-.32-.85-.63-1.06-.31-.21-.71-.32-1.21-.32-.35,0-.65.07-.91.21-.25.14-.46.33-.63.57-.16.24-.29.51-.36.82-.08.31-.12.64-.12.99,0,.32.03.64.1.96.07.31.18.59.34.84s.37.44.63.6.6.23,1,.23c.25,0,.48-.04.68-.12.21-.08.39-.19.54-.34.15-.14.28-.31.39-.51.11-.19.18-.41.24-.64h.58c-.06.28-.16.55-.28.8s-.29.47-.49.66-.45.34-.74.45-.63.17-1.02.17c-.45,0-.83-.08-1.15-.25s-.58-.39-.78-.67c-.2-.28-.35-.61-.44-.98s-.14-.76-.14-1.18c0-.56.07-1.03.21-1.42s.33-.71.57-.95c.24-.25.53-.42.86-.54.33-.11.69-.17,1.08-.17.3,0,.57.04.83.12.26.08.48.2.68.35.2.16.36.35.49.58s.22.5.26.8h-.58Z"/>
    <path class="st4" d="M62.56,170.18v-5.84h.55v5.84h-.55Z"/>
    <path class="st4" d="M65.22,170.18l2.3-5.84h.62l2.24,5.84h-.57l-.67-1.83h-2.66l-.69,1.83h-.57ZM66.66,167.88h2.29l-1.14-3.07-1.14,3.07h-.01Z"/>
    <path class="st4" d="M72.3,170.18v-5.84h.55v5.37h3.13v.47h-3.68Z"/>
    <path class="st4" d="M85.92,169.4h.02l1.27-5.06h.57l-1.53,5.84h-.61l-1.35-5.16h-.02l-1.35,5.16h-.61l-1.51-5.84h.55l1.26,5.06h.02l1.35-5.06h.62l1.33,5.06h-.01Z"/>
    <path class="st4" d="M89.88,170.18v-5.84h.55v5.84h-.55Z"/>
    <path class="st4" d="M92.54,164.34h4.25v.47h-1.85v5.37h-.55v-5.37h-1.85v-.47Z"/>
    <path class="st4" d="M98.71,170.18v-5.84h.55v2.51h3.46v-2.51h.55v5.84h-.55v-2.86h-3.46v2.86h-.55Z"/>
    <path class="st4" d="M105.48,167.27c0-.43.06-.83.17-1.2.12-.37.29-.7.51-.98.23-.28.51-.5.84-.66.33-.16.72-.24,1.16-.24s.85.08,1.2.24.63.38.86.66.4.61.52.98c.12.38.17.78.17,1.2s-.06.82-.17,1.19-.29.69-.51.97c-.23.28-.51.5-.85.66s-.74.24-1.18.24-.84-.08-1.18-.24c-.34-.16-.62-.38-.85-.66-.23-.28-.4-.6-.51-.97s-.17-.77-.17-1.19h0ZM108.21,169.87c.38,0,.7-.07.98-.21.27-.14.5-.33.67-.57.18-.24.31-.51.39-.83s.13-.64.13-.98c0-.41-.05-.77-.15-1.09-.1-.32-.25-.6-.43-.82-.19-.23-.42-.4-.69-.52-.27-.12-.57-.18-.91-.18-.37,0-.7.07-.97.22-.27.15-.5.34-.67.58s-.31.52-.39.83-.13.64-.13.98.04.68.13.99c.08.31.21.59.39.83s.4.43.67.57c.27.14.6.21.99.21h0Z"/>
    <path class="st4" d="M113.16,164.34h.55v3.48c0,.72.14,1.25.41,1.57.27.32.71.48,1.31.48.31,0,.58-.04.8-.13s.4-.21.53-.38c.14-.17.23-.38.29-.64.06-.25.09-.55.09-.9v-3.48h.55v3.64c0,.76-.19,1.35-.56,1.75-.38.4-.94.6-1.7.6s-1.33-.21-1.7-.62c-.37-.41-.56-.99-.56-1.74v-3.64h-.01Z"/>
    <path class="st4" d="M119.62,164.34h4.25v.47h-1.85v5.37h-.55v-5.37h-1.85v-.47Z"/>
    <path class="st4" d="M128.64,170.18l2.3-5.84h.62l2.24,5.84h-.57l-.67-1.83h-2.66l-.69,1.83h-.57,0ZM130.09,167.88h2.29l-1.14-3.07-1.14,3.07h0Z"/>
    <path class="st4" d="M135.72,170.18v-5.84h.55v5.37h3.13v.47h-3.68Z"/>
    <path class="st4" d="M143.85,167.64v-.47h2.5v3.02h-.47v-1c-.1.17-.22.33-.35.47s-.29.27-.46.37c-.17.1-.37.18-.6.23-.23.05-.48.08-.77.08-.37,0-.71-.07-1.02-.19-.31-.13-.58-.32-.81-.58s-.4-.58-.53-.97-.19-.84-.19-1.36c0-.43.05-.83.16-1.2s.27-.69.5-.97c.22-.27.51-.49.84-.64.34-.16.74-.24,1.2-.24.31,0,.6.04.86.11.27.08.51.19.72.34s.39.35.54.58.25.5.32.82h-.57c-.05-.22-.13-.41-.25-.58s-.26-.32-.42-.43-.34-.21-.54-.27-.41-.09-.62-.09c-.38,0-.71.07-.99.2-.28.14-.5.33-.68.57-.18.25-.31.54-.39.88s-.13.72-.13,1.13c0,.32.05.63.14.92s.23.55.41.77.4.4.66.53c.26.13.56.19.9.19.16,0,.32-.02.49-.05s.33-.09.49-.17.3-.19.44-.32.25-.29.35-.48c.09-.18.16-.38.19-.58.04-.2.06-.41.06-.63h-1.98Z"/>
    <path class="st4" d="M148.59,167.27c0-.43.06-.83.17-1.2.12-.37.29-.7.51-.98.23-.28.51-.5.84-.66s.72-.24,1.16-.24.85.08,1.2.24.63.38.86.66.4.61.52.98c.12.38.17.78.17,1.2s-.06.82-.17,1.19-.29.69-.51.97c-.23.28-.51.5-.85.66-.34.16-.74.24-1.18.24s-.84-.08-1.18-.24-.62-.38-.85-.66c-.23-.28-.4-.6-.51-.97s-.17-.77-.17-1.19h-.01ZM151.31,169.87c.38,0,.7-.07.98-.21.27-.14.5-.33.67-.57.18-.24.31-.51.39-.83s.13-.64.13-.98c0-.41-.05-.77-.15-1.09-.1-.32-.25-.6-.43-.82-.19-.23-.42-.4-.69-.52-.27-.12-.57-.18-.91-.18-.37,0-.7.07-.97.22s-.5.34-.67.58-.31.52-.39.83-.13.64-.13.98.04.68.13.99c.08.31.21.59.39.83s.4.43.67.57c.27.14.6.21.99.21h-.01Z"/>
    <path class="st4" d="M156.8,167.53v2.65h-.55v-5.84h2.29c.64,0,1.14.12,1.48.36s.51.63.51,1.17c0,.37-.07.66-.22.88s-.39.4-.73.55c.17.06.31.15.41.26s.17.24.22.39.08.3.09.46.02.32.03.47c0,.22,0,.41.03.55,0,.15.03.27.05.36s.04.16.07.22.06.09.1.12v.05h-.61c-.06-.09-.1-.22-.13-.4-.02-.17-.04-.35-.06-.54,0-.19-.02-.37-.03-.55,0-.18-.02-.32-.04-.44-.03-.16-.09-.28-.16-.38-.07-.09-.16-.17-.26-.21-.1-.05-.22-.08-.34-.1s-.26-.02-.39-.02h-1.76ZM158.52,167.06c.21,0,.4-.02.57-.06s.33-.11.46-.21c.13-.09.23-.22.31-.36.08-.15.11-.32.11-.53s-.04-.39-.12-.54c-.08-.14-.18-.25-.32-.33-.13-.08-.28-.14-.45-.17s-.35-.05-.53-.05h-1.75v2.25h1.72,0Z"/>
    <path class="st4" d="M163,170.18v-5.84h.55v5.84h-.55Z"/>
    <path class="st4" d="M165.67,164.34h4.25v.47h-1.85v5.37h-.55v-5.37h-1.85v-.47h0Z"/>
    <path class="st4" d="M171.83,170.18v-5.84h.55v2.51h3.46v-2.51h.55v5.84h-.55v-2.86h-3.46v2.86h-.55Z"/>
    <path class="st4" d="M178.81,170.18v-5.84h.84l1.91,5.15h.02l1.88-5.15h.84v5.84h-.55v-5.21h-.02l-1.91,5.21h-.52l-1.92-5.21h-.02v5.21h-.55,0Z"/>
    <path class="st4" d="M186.95,168.44c.02.26.08.48.17.66s.22.33.36.44c.15.11.32.2.52.25.19.05.4.08.62.08.26,0,.48-.03.67-.1.19-.06.34-.15.46-.26.12-.11.21-.24.26-.38.06-.15.09-.3.09-.46,0-.23-.05-.41-.15-.55-.1-.14-.24-.26-.4-.34-.16-.09-.35-.16-.57-.22-.21-.05-.43-.11-.66-.16-.22-.05-.44-.11-.66-.18-.21-.07-.4-.16-.57-.28s-.3-.27-.4-.46c-.1-.19-.15-.42-.15-.71,0-.2.04-.39.13-.58s.21-.36.37-.5c.16-.15.37-.26.62-.35.25-.09.54-.13.86-.13s.62.05.86.14c.25.09.45.22.61.38s.28.34.37.56c.08.21.12.44.12.67h-.53c0-.22-.04-.41-.12-.58-.08-.16-.19-.29-.32-.4-.14-.1-.29-.18-.46-.23-.17-.05-.35-.07-.54-.07-.28,0-.52.04-.71.12s-.34.18-.46.3c-.11.12-.19.26-.24.41s-.05.3-.02.45c.03.19.11.34.23.45s.26.21.44.28c.17.07.36.13.57.18.21.05.42.1.64.15.22.05.43.11.63.18.2.07.38.17.54.28s.28.27.38.46c.09.19.14.42.14.7,0,.54-.19.96-.56,1.26s-.9.45-1.57.45c-.3,0-.58-.04-.84-.12s-.48-.2-.67-.36-.34-.36-.44-.59c-.11-.24-.16-.51-.16-.83h.54Z"/>
  </g>
  <g>
    <rect class="st0" x="26.47" y="157.38" width=".58" height="20.22" transform="translate(-140.81 193.72) rotate(-89.82)"/>
    <rect class="st2" x="195.35" y="167.2" width="20.19" height=".58"/>
  </g>
</svg>